<mxfile host="app.diagrams.net" modified="2023-10-19T20:26:25.714Z" agent="Mozilla/5.0 (Windows NT 10.0; Win64; x64) AppleWebKit/537.36 (KHTML, like Gecko) Chrome/118.0.0.0 Safari/537.36" version="22.0.5" etag="YeIlkCYhoob3-kQiIMQl" type="github">
  <diagram name="Page-1" id="zYJMMvb7nbqXBG2LLLAv">
    <mxGraphModel>
      <root>
        <mxCell id="0" />
        <mxCell id="1" parent="0" />
      </root>
    </mxGraphModel>
  </diagram>
</mxfile>
